<?xml version="1.0" encoding="UTF-8"?>
<svg width="217px" height="67px" viewBox="0 0 217 67" version="1.1" xmlns="http://www.w3.org/2000/svg" xmlns:xlink="http://www.w3.org/1999/xlink">
    <title>JamieKay</title>
    <g id="Page-1" stroke="none" stroke-width="1" fill="none" fill-rule="evenodd">
        <g id="Artboard" transform="translate(-33.000000, -24.000000)" fill="#444444" fill-rule="nonzero">
            <path d="M41.558,90.793 C51.575,90.793 61.327,70.971 66.468,58.357 L66.839,57.403 C68.8,57.032 70.072,56.555 70.92,55.919 C71.556,55.442 71.397,54.806 70.496,55.336 C69.807,55.76 68.747,56.025 67.316,56.237 C67.8354,54.9226 68.35162,53.57481 68.852099,52.213452 L69.150397,51.3951676 C73.4947824,39.3744352 76.42564,26.61 69.383,26.61 C63.341,26.61 57.564,31.963 52.741,39.012 C47.6,46.485 46.593,52.792 46.593,55.601 C46.593,57.88 47.865,59.947 49.137,60.477 C49.932,60.848 50.568,60.371 49.72,59.788 C48.872,59.311 47.547,58.198 47.547,55.76 C47.547,52.633 49.879,46.008 54.172,39.648 C57.935,34.083 64.931,27.882 69.224,27.882 C73.676,27.882 74.259,36.786 65.832,56.502 C60.479,57.456 47.971,61.325 40.127,68.904 C28.361,80.299 33.608,90.793 41.558,90.793 Z M41.399,89.839 C35.251,89.839 31.276,79.186 41.028,69.699 C48.342,62.65 58.624,58.94 65.302,57.668 C56.345,78.126 48.395,89.839 41.399,89.839 Z M83.587,61.378 C87.085,61.378 98.321,56.29 101.819,54.011 C102.72,53.428 101.607,53.375 101.342,53.534 C98.109,55.283 87.35,60.265 83.64,60.265 C82.262,60.265 81.308,59.576 81.308,58.675 C81.308,57.456 81.838,56.502 81.838,56.078 C81.838,55.707 81.361,55.601 81.149,55.601 C80.513,55.601 79.188,56.343 77.174,57.297 C75.69,58.039 74.789,58.41 74.312,58.41 C74.153,58.41 74.1,58.357 74.1,58.251 C74.1,57.827 75.16,56.29 76.538,55.389 C78.022,54.382 79.082,53.958 79.612,53.958 C80.195,53.958 80.354,55.018 80.884,55.018 C81.414,55.018 80.672,53.11 79.453,53.11 C78.552,53.11 77.492,53.375 75.796,54.7 C73.782,56.184 73.146,57.562 73.146,58.569 C73.146,58.887 73.676,59.364 74.418,59.364 C74.948,59.364 76.644,58.675 78.181,57.774 C79.877,56.873 80.195,56.82 80.354,56.979 C80.46,57.085 80.248,57.615 80.248,58.728 C80.248,59.841 80.99,61.378 83.587,61.378 Z M116.606,62.756 C120.104,62.756 128.743,57.403 133.619,54.223 C134.467,53.693 133.46,53.375 133.195,53.534 C132.938673,53.6901091 132.682626,53.8458678 132.427058,54.0010951 L131.661991,54.4650021 C125.174514,58.3915858 119.127836,61.855 116.818,61.855 C116.341,61.855 116.288,61.06 116.977,57.88 C117.507,55.442 117.719,53.905 117.719,53.322 C117.719,52.739 117.401,52.156 116.818,52.156 C115.97,52.156 114.062,54.064 112.101,56.449 C111.73,56.926 111.306,57.35 110.988,57.668 C110.299,58.516 109.981,58.304 110.14,57.456 L110.617,54.859 C111.253,51.361 111.624,49.135 110.087,48.817 C108.921,48.605 107.649,49.93 104.946,54.382 C102.773,58.039 101.607,60.212 101.713,59.417 C101.978,57.933 102.508,55.442 102.667,54.223 C102.773,53.057 101.342,53.057 101.289,54.117 C101.236,55.283 101.024,58.41 100.547,61.272 C100.441,62.014 100.6,62.438 101.077,62.438 C101.925,62.438 102.614,60.053 105.794,54.806 C108.709,50.142 109.398,49.612 109.981,49.93 C110.405,50.195 110.299,51.891 109.716,54.806 C109.027,58.516 109.186,59.152 109.769,59.258 C110.405,59.364 111.2,58.834 112.896,56.767 C114.274,55.071 116.129,53.216 116.5,53.428 C116.765,53.534 116.659,54.011 115.97,57.827 C115.334,61.431 115.228,62.756 116.606,62.756 Z M136.004,48.552 C136.11,48.075 135.792,47.439 135.315,47.333 C134.997,47.28 134.573,47.863 134.467,48.181 C134.361,48.552 134.573,49.453 134.838,49.559 C135.156,49.612 135.845,49.029 136.004,48.552 Z M140.562,57.615 C143.414979,56.6474681 145.48992,55.8192861 146.95533,55.1956817 L147.340001,55.0307289 C148.572708,54.4981203 149.314329,54.1394848 149.691465,54.0038287 L149.793797,53.9698703 C149.809072,53.9653418 149.823468,53.961383 149.837,53.958 C150.102,53.852 149.89,53.322 149.625,53.322 C149.307,53.322 145.332,55.018 140.138,56.873 C135.633,58.463 134.149,58.622 133.46,58.622 C133.195,58.622 132.93,58.304 132.983,57.668 C133.089,56.82 133.248,55.813 134.043,54.17 C134.361,53.587 134.043,53.269 133.778,53.322 C132.877,53.481 132.612,53.905 132.4,54.647 C132.082,55.548 131.87,56.926 131.87,57.721 C131.87,58.569 132.294,59.523 133.672,59.523 C134.52,59.523 135.739,59.258 140.562,57.615 Z M149.678,60.636 C150.844,60.583 153.017,59.523 154.289,58.145 C154.872,57.509 154.501,57.244 154.024,57.615 C152.54,58.728 151.056,59.682 149.413,59.682 C148.512,59.682 147.77,59.311 147.505,58.569 C149.413,57.933 151.374,56.767 152.01,55.124 C152.434,53.905 152.116,53.057 151.109,52.898 C149.996,52.686 147.876,53.64 146.816,56.078 C145.703,58.516 146.922,60.848 149.678,60.636 Z M147.399,57.933 C147.399,57.509 147.505,57.032 147.77,56.449 C148.671,54.223 150.367,53.534 150.95,53.693 C151.321,53.799 151.374,54.276 151.215,54.753 C150.791,55.919 148.936,57.403 147.399,57.933 Z M168.811,72.561 C169.341,72.402 169.341,71.872 170.401,66.731 L171.196,62.597 C174.323,63.286 179.093,63.604 184.711,63.074 C194.728,62.067 199.074,59.947 199.551,59.417 C200.028,58.94 199.816,58.675 198.491,59.311 C197.166,59.947 192.82,61.219 183.863,61.855 C178.563,62.226 174.164,62.014 171.408,61.537 L173.104,52.421 C175.595,49.453 179.358,45.743 184.817,41.344 C198.014,30.638 205.275,27.14 206.07,25.444 C206.547,24.437 206.07,24.49 205.275,25.179 C204.533,25.868 197.908,28.2 183.386,40.496 C179.093,44.1 175.966,47.121 173.634,49.612 C173.711408,49.1914868 173.789064,48.7694872 173.866837,48.3467052 L174.0225,47.5003066 C174.230158,46.3709407 174.438032,45.2393493 174.643649,44.118885 L174.7974,43.2808316 C176.355453,34.7860758 177.746382,27.1323289 177.874,26.239 C178.139,24.331 176.655,24.225 176.549,25.02 C176.452815,25.5009259 175.56142,31.334973 174.60226,37.5708155 L174.425493,38.7195563 L174.425493,38.7195563 L174.307296,39.487037 L174.307296,39.487037 L174.189164,40.2534838 C173.697493,43.442052 173.215235,46.5510864 172.839,48.923 L172.521,50.831 C167.963,56.078 167.274,58.781 167.274,60.212 C167.274,61.06 168.387,61.855 170.401,62.385 C169.447,67.155 168.546,71.13 168.334,71.66 C167.91,72.455 168.281,72.773 168.811,72.561 Z M170.613,61.378 C169.182,61.06 168.387,60.636 168.387,60.159 C168.387,59.47 169.235,57.244 171.991,53.799 L170.613,61.378 Z M211.953,61.378 C215.451,61.378 226.687,56.29 230.185,54.011 C231.086,53.428 229.973,53.375 229.708,53.534 C226.475,55.283 215.716,60.265 212.006,60.265 C210.628,60.265 209.674,59.576 209.674,58.675 C209.674,57.456 210.204,56.502 210.204,56.078 C210.204,55.707 209.727,55.601 209.515,55.601 C208.879,55.601 207.554,56.343 205.54,57.297 C204.056,58.039 203.155,58.41 202.678,58.41 C202.519,58.41 202.466,58.357 202.466,58.251 C202.466,57.827 203.526,56.29 204.904,55.389 C206.388,54.382 207.448,53.958 207.978,53.958 C208.561,53.958 208.72,55.018 209.25,55.018 C209.78,55.018 209.038,53.11 207.819,53.11 C206.918,53.11 205.858,53.375 204.162,54.7 C202.148,56.184 201.512,57.562 201.512,58.569 C201.512,58.887 202.042,59.364 202.784,59.364 C203.314,59.364 205.01,58.675 206.547,57.774 C208.243,56.873 208.561,56.82 208.72,56.979 C208.826,57.085 208.614,57.615 208.614,58.728 C208.614,59.841 209.356,61.378 211.953,61.378 Z M227.429,82.048 C230.238,82.048 233.471,79.133 235.909,74.84 C238.347,70.494 240.149,63.021 240.255,58.198 C244.495,55.495 248.523,54.117 249.583,54.117 C250.325,54.117 250.113,53.216 249.318,53.216 C248.311,53.216 244.389,54.594 240.255,57.032 C240.202,55.389 239.937,53.11 238.612,53.11 C237.34,53.11 236.439,54.382 233.789,57.244 C232.146,59.099 230.291,60.424 229.655,60.424 C229.284,60.424 229.231,60.106 229.443,59.205 C229.549,58.781 230.079,57.191 230.45,56.131 C230.927,54.912 231.086,54.488 231.086,54.064 C231.086,53.905 230.874,53.481 230.344,53.534 C229.814,53.64 230.079,54.223 229.655,55.601 C229.284,56.714 228.807,58.41 228.436,59.735 C228.118,60.954 228.754,61.643 229.496,61.643 C230.715,61.643 232.57,59.788 234.425,57.774 C236.227,55.813 237.499,54.488 238.4,54.488 C239.089,54.488 239.195,55.813 239.248,57.668 C237.181,58.94 235.114,60.477 233.365,62.279 C227.217,68.533 224.09,74.469 224.09,78.391 C224.09,81.094 225.998,82.048 227.429,82.048 Z M227.005,81.041 C225.786,81.041 225.15,80.087 225.15,78.55 C225.15,75.529 227.694,69.487 234.107,63.021 C235.697,61.378 237.446,60 239.248,58.834 C239.142,62.438 237.446,69.752 234.955,74.098 C232.252,78.868 228.966,81.041 227.005,81.041 Z" id="JamieKay"></path>
        </g>
    </g>
</svg>